<mxfile host="65bd71144e">
    <diagram id="1ZgOKH95Nht2Xd8qF35z" name="Page-1">
        <mxGraphModel dx="2023" dy="539" grid="1" gridSize="10" guides="1" tooltips="1" connect="1" arrows="1" fold="1" page="1" pageScale="1" pageWidth="827" pageHeight="1169" math="0" shadow="0">
            <root>
                <mxCell id="0"/>
                <mxCell id="1" parent="0"/>
                <mxCell id="2" value="" style="whiteSpace=wrap;html=1;" parent="1" vertex="1">
                    <mxGeometry x="-160" y="545" width="870" height="235" as="geometry"/>
                </mxCell>
                <mxCell id="3" value="logo" style="whiteSpace=wrap;html=1;aspect=fixed;" parent="1" vertex="1">
                    <mxGeometry x="-130" y="555" width="45" height="45" as="geometry"/>
                </mxCell>
                <mxCell id="4" value="bio" style="whiteSpace=wrap;html=1;aspect=fixed;" parent="1" vertex="1">
                    <mxGeometry x="-130" y="617.5" width="70" height="70" as="geometry"/>
                </mxCell>
                <mxCell id="9" value="social links" style="rounded=1;whiteSpace=wrap;html=1;" parent="1" vertex="1">
                    <mxGeometry x="400" y="622.5" width="270" height="60" as="geometry"/>
                </mxCell>
                <mxCell id="11" value="nav links" style="whiteSpace=wrap;html=1;" parent="1" vertex="1">
                    <mxGeometry x="120" y="577.5" width="140" height="110" as="geometry"/>
                </mxCell>
                <mxCell id="13" value="back to top" style="rounded=1;whiteSpace=wrap;html=1;" parent="1" vertex="1">
                    <mxGeometry x="620" y="555" width="50" height="35" as="geometry"/>
                </mxCell>
                <mxCell id="16" value="" style="shape=link;html=1;" parent="1" edge="1">
                    <mxGeometry width="100" relative="1" as="geometry">
                        <mxPoint x="-160" y="726" as="sourcePoint"/>
                        <mxPoint x="710" y="726" as="targetPoint"/>
                        <Array as="points"/>
                    </mxGeometry>
                </mxCell>
                <mxCell id="17" value="copy rights" style="rounded=0;whiteSpace=wrap;html=1;" parent="1" vertex="1">
                    <mxGeometry x="200" y="740" width="120" height="30" as="geometry"/>
                </mxCell>
            </root>
        </mxGraphModel>
    </diagram>
</mxfile>